<svg width="93" height="93" viewBox="0 0 93 93" fill="none" xmlns="http://www.w3.org/2000/svg">
<path d="M19.8753 58.2575C19.3105 58.2575 18.7847 58.0043 18.2978 57.4979C17.8304 57.0111 17.441 56.3003 17.1294 55.3655C16.8372 54.4502 16.623 53.3206 16.4867 51.9769C16.3699 50.6137 16.3796 49.0654 16.5159 47.3322C16.5938 46.1832 16.7496 45.0147 16.9833 43.8268C17.217 42.6193 17.4799 41.4606 17.772 40.3505C18.0641 39.221 18.3757 38.1596 18.7068 37.1664C19.0379 36.1732 19.3397 35.2969 19.6124 34.5374C19.9045 33.7584 20.1382 33.1352 20.3135 32.6678C20.5082 32.2004 20.6251 31.9278 20.664 31.8499C20.7224 31.7525 20.8295 31.6551 20.9853 31.5577C21.1606 31.4409 21.3554 31.3435 21.5696 31.2656C21.8033 31.1877 22.0467 31.1293 22.2999 31.0904C22.5725 31.0319 22.8257 31.0027 23.0594 31.0027C23.2541 31.0027 23.4391 31.0125 23.6144 31.0319C23.7702 31.0514 23.926 31.0806 24.0818 31.1196C24.2376 31.1585 24.3739 31.2169 24.4908 31.2948C24.2766 31.4312 24.0623 31.6454 23.8481 31.9375C23.6534 32.2101 23.4684 32.5023 23.2931 32.8139C23.0789 33.1644 22.8841 33.5442 22.7088 33.9531C22.3194 34.7711 21.9104 35.7643 21.4819 36.9327C21.0535 38.1012 20.6445 39.3476 20.255 40.6719C19.885 41.9767 19.554 43.3107 19.2618 44.6739C18.9892 46.0177 18.8042 47.2835 18.7068 48.4715C18.551 50.8668 18.6386 52.6488 18.9697 53.8172C19.3008 55.0052 19.7682 55.5992 20.3719 55.5992C20.664 55.5992 20.9756 55.4142 21.3067 55.0441C21.6377 54.6741 21.9688 54.197 22.2999 53.6128C22.6504 53.0285 22.9912 52.3761 23.3223 51.6556C23.6534 50.935 23.965 50.2242 24.2571 49.5231C24.4323 49.0752 24.6174 48.5786 24.8121 48.0333C25.0263 47.4685 25.2308 46.894 25.4256 46.3098C25.6398 45.7255 25.8443 45.151 26.039 44.5863C26.2338 44.002 26.409 43.4762 26.5648 43.0088C26.5648 42.4246 26.5746 41.8111 26.594 41.1685C26.6135 40.5063 26.6525 39.8442 26.7109 39.1821C26.7888 38.5004 26.8862 37.8383 27.003 37.1956C27.1198 36.5335 27.2756 35.9298 27.4704 35.3845C27.8599 34.3329 28.3175 33.5636 28.8434 33.0768C29.3692 32.5704 29.8268 32.3075 30.2163 32.288C30.489 32.288 30.6837 32.4049 30.8006 32.6386C30.9174 32.8723 30.9661 33.1839 30.9466 33.5734C30.9077 34.0797 30.82 34.6932 30.6837 35.4137C30.5474 36.1148 30.3818 36.8743 30.1871 37.6923C30.0118 38.4907 29.8073 39.3086 29.5737 40.1461C29.34 40.964 29.116 41.7527 28.9018 42.5122C28.5512 44.5181 28.337 46.339 28.2591 47.9749C28.1812 49.5912 28.191 50.9837 28.2883 52.1522C28.4052 53.3012 28.5902 54.1873 28.8434 54.8105C29.116 55.4531 29.4373 55.7744 29.8073 55.7744C30.2358 55.7744 30.6837 55.4823 31.1511 54.8981C31.638 54.3138 32.1151 53.5446 32.5825 52.5903C33.0499 51.6166 33.4978 50.5163 33.9262 49.2894C34.3741 48.0625 34.7734 46.8064 35.1239 45.5211C35.4939 44.2163 35.7958 42.9407 36.0295 41.6943C36.2632 40.4284 36.419 39.2892 36.4969 38.2765C36.5553 37.4391 36.5845 36.6114 36.5845 35.7935C36.5845 35.0924 36.5553 34.3426 36.4969 33.5442C36.4385 32.7457 36.3313 32.0251 36.1755 31.3825C36.4287 31.1683 36.7695 30.993 37.198 30.8567C37.4122 30.7788 37.6459 30.7106 37.8991 30.6522C38.0549 30.6132 38.2204 30.584 38.3957 30.5645C38.5515 30.5451 38.7073 30.5353 38.863 30.5353C39.0188 30.5159 39.1649 30.5256 39.3012 30.5645C39.4181 30.8372 39.496 31.1877 39.5349 31.6162C39.5933 32.0446 39.6323 32.4633 39.6518 32.8723C39.6712 33.3591 39.6615 33.8655 39.6226 34.3913C39.4668 36.4556 39.1941 38.481 38.8046 40.4674C38.4346 42.4538 37.977 44.3428 37.4317 46.1345C36.8864 47.9067 36.2729 49.5426 35.5913 51.0421C34.9292 52.5222 34.2378 53.8075 33.5173 54.8981C32.8162 55.9887 32.1054 56.8358 31.3848 57.4395C30.6837 58.0432 30.0118 58.3451 29.3692 58.3451C28.6876 58.3451 28.1423 58.053 27.7333 57.4687C27.3243 56.904 27.0127 56.1834 26.7985 55.3071C26.5843 54.4502 26.448 53.5251 26.3895 52.5319C26.3311 51.5387 26.3117 50.6234 26.3311 49.786C25.8832 50.8766 25.3963 51.9282 24.8705 52.9409C24.3642 53.9536 23.8286 54.8494 23.2639 55.6284C22.7186 56.4268 22.1538 57.0598 21.5696 57.5272C21.0048 58.014 20.44 58.2575 19.8753 58.2575ZM48.7659 48.0333C48.5712 48.7733 48.3082 49.4647 47.9772 50.1073C47.6461 50.75 47.2469 51.305 46.7795 51.7724C46.3316 52.2398 45.8155 52.6001 45.2313 52.8533C44.6665 53.1259 44.0433 53.2622 43.3617 53.2622C42.5632 53.2622 41.9303 53.0869 41.4629 52.7364C41.015 52.4053 40.6742 51.9866 40.4405 51.4803C40.2263 50.9739 40.0997 50.4189 40.0607 49.8152C40.0023 49.2115 39.9731 48.6467 39.9731 48.1209C39.9731 47.7509 40.0218 47.3419 40.1192 46.894C40.1971 46.4461 40.3139 45.9884 40.4697 45.5211C40.6255 45.0537 40.8202 44.5863 41.0539 44.1189C41.3071 43.6515 41.5992 43.223 41.9303 42.8336C42.0471 42.5025 42.2224 42.2104 42.4561 41.9572C42.7093 41.704 42.9917 41.4995 43.3033 41.3437C43.6343 41.1685 43.9849 41.0419 44.3549 40.964C44.7249 40.8666 45.0852 40.8179 45.4357 40.8179C45.4942 40.8179 45.5428 40.8277 45.5818 40.8471C45.6402 40.8666 45.6986 40.8861 45.7571 40.9056C46.0102 40.925 46.3218 41.0224 46.6918 41.1977C47.0813 41.373 47.4514 41.6359 47.8019 41.9864C48.1719 42.337 48.4835 42.7849 48.7367 43.3302C48.9899 43.856 49.1164 44.4986 49.1164 45.2581C49.1164 45.4139 49.1067 45.6087 49.0872 45.8424C49.0678 46.0566 49.0483 46.2416 49.0288 46.3974C49.4767 46.2221 49.9441 46.0079 50.431 45.7547C50.9178 45.5016 51.3852 45.2387 51.8332 44.966C52.3005 44.6739 52.729 44.3818 53.1185 44.0897C53.508 43.7975 53.8196 43.5346 54.0533 43.3009C54.248 43.1257 54.4135 43.0283 54.5499 43.0088C54.6862 42.9894 54.7836 43.0283 54.842 43.1257C54.9004 43.223 54.9101 43.3594 54.8712 43.5346C54.8322 43.7099 54.7251 43.9047 54.5499 44.1189C54.4525 44.2357 54.1993 44.4694 53.7904 44.82C53.4009 45.1705 52.9335 45.5503 52.3882 45.9592C51.8429 46.3682 51.2489 46.7674 50.6062 47.1569C49.9636 47.5464 49.3501 47.8385 48.7659 48.0333ZM43.8291 43.5931C43.7707 43.7683 43.7414 43.9533 43.7414 44.1481C43.7414 44.4597 43.7609 44.7908 43.7999 45.1413C43.8388 45.4724 43.9362 45.7742 44.092 46.0469C44.2478 46.3195 44.4912 46.5532 44.8223 46.748C45.1728 46.9232 45.65 47.0109 46.2537 47.0109C46.351 47.0109 46.4484 47.0109 46.5458 47.0109C46.6432 46.9914 46.7405 46.9719 46.8379 46.9524C46.8963 46.6993 46.945 46.4753 46.984 46.2806C47.0424 46.0663 47.0716 45.8813 47.0716 45.7255C47.1106 45.3555 47.1106 44.9758 47.0716 44.5863C47.0327 44.1968 46.9548 43.8462 46.8379 43.5346C46.7405 43.2036 46.6042 42.9407 46.4289 42.7459C46.2731 42.5317 46.0784 42.4246 45.8447 42.4246C45.4747 42.4246 45.1144 42.5317 44.7639 42.7459C44.4328 42.9407 44.1212 43.223 43.8291 43.5931ZM41.9595 48.7344C41.9595 49.0849 41.979 49.4355 42.0179 49.786C42.0569 50.1171 42.1348 50.4189 42.2516 50.6916C42.3685 50.9447 42.5243 51.159 42.719 51.3342C42.9138 51.49 43.1669 51.5679 43.4785 51.5679C43.8291 51.5679 44.1504 51.49 44.4425 51.3342C44.7346 51.159 44.9976 50.9447 45.2313 50.6916C45.4649 50.4189 45.6694 50.1171 45.8447 49.786C46.0394 49.4355 46.205 49.0752 46.3413 48.7052C46.205 48.7246 46.0687 48.7441 45.9323 48.7636C45.8155 48.7636 45.6792 48.7636 45.5234 48.7636C44.7833 48.7636 44.1407 48.5494 43.5954 48.1209C43.0696 47.673 42.6606 47.1082 42.3685 46.4266C42.2516 46.8356 42.1543 47.2348 42.0764 47.6243C41.9985 48.0138 41.9595 48.3838 41.9595 48.7344ZM67.0818 47.9749C66.9455 48.1696 66.7215 48.452 66.4099 48.822C66.1178 49.192 65.7575 49.5912 65.3291 50.0197C64.9201 50.4481 64.443 50.8961 63.8977 51.3634C63.3719 51.8114 62.8071 52.2203 62.2034 52.5903C62.1255 53.0383 61.9794 53.6712 61.7652 54.4891C61.551 55.3265 61.2686 56.2321 60.9181 57.2058C60.5675 58.1796 60.1586 59.163 59.6912 60.1562C59.2238 61.1689 58.698 62.0842 58.1137 62.9022C57.549 63.7396 56.9258 64.4114 56.2442 64.9178C55.5625 65.4436 54.842 65.7065 54.0825 65.7065C53.323 65.7065 52.729 65.5799 52.3005 65.3267C51.8721 65.0736 51.5605 64.7425 51.3658 64.3335C51.1515 63.9441 51.025 63.5059 50.986 63.019C50.9471 62.5516 50.9373 62.094 50.9568 61.646C50.9763 61.0618 51.1515 60.3802 51.4826 59.6012C51.8137 58.8417 52.2713 58.0627 52.8556 57.2643C53.4593 56.4853 54.1798 55.7355 55.0173 55.0149C55.8547 54.3138 56.7894 53.7199 57.8216 53.233C58.3279 53.0188 58.7953 52.8143 59.2238 52.6196C59.6522 52.4053 60.0514 52.2009 60.4215 52.0061C60.5773 51.3634 60.587 50.935 60.4507 50.7208C60.3338 50.5066 60.1586 50.3994 59.9249 50.3994C59.5743 50.3994 59.1556 50.5552 58.6687 50.8668C58.2014 51.1784 57.6171 51.6653 56.916 52.3274C56.7213 52.3469 56.546 52.3274 56.3902 52.269C56.2539 52.1911 56.137 52.1035 56.0397 52.0061C55.9228 51.9087 55.8254 51.7919 55.7476 51.6556C55.5333 51.3245 55.436 50.9934 55.4554 50.6624C55.4944 50.3313 55.6502 50.0684 55.9228 49.8736C56.1955 49.6594 56.5947 49.3186 57.1205 48.8512C57.6658 48.3643 58.1916 47.7509 58.698 47.0109C58.8538 46.7966 59.0388 46.5337 59.253 46.2221C59.4867 45.8911 59.7106 45.5405 59.9249 45.1705C60.1586 44.781 60.3728 44.3818 60.5675 43.9728C60.7817 43.5639 60.9473 43.1744 61.0641 42.8043C60.6746 42.7459 60.1099 42.7557 59.3698 42.8336C58.9803 42.9115 58.5616 42.9991 58.1137 43.0965C57.7242 43.1938 57.2763 43.3204 56.77 43.4762C56.2831 43.632 55.767 43.8462 55.2217 44.1189C55.1438 44.0799 55.0854 44.002 55.0465 43.8852C55.0075 43.7683 54.9783 43.632 54.9588 43.4762C54.9394 43.3009 54.9296 43.1062 54.9296 42.892C54.9296 42.6193 54.9686 42.3954 55.0465 42.2201C55.1438 42.0254 55.2607 41.8696 55.397 41.7527C55.5333 41.6359 55.6794 41.5482 55.8352 41.4898C55.991 41.4119 56.1273 41.3535 56.2442 41.3145C56.3805 41.2756 56.6434 41.2269 57.0329 41.1685C57.4418 41.0906 57.8995 41.0224 58.4058 40.964C58.9122 40.9056 59.438 40.8666 59.9833 40.8471C60.5286 40.8082 61.0252 40.7985 61.4731 40.8179C62.3884 40.8764 62.9629 41.0029 63.1966 41.1977C63.4498 41.373 63.5179 41.6553 63.4011 42.0448C63.2648 42.4343 63.0019 43.0965 62.6124 44.0312C62.2229 44.9466 61.6289 46.0079 60.8304 47.2153C60.4994 47.6633 60.1975 48.082 59.9249 48.4715C59.6522 48.861 59.3893 49.2018 59.1361 49.4939C59.4672 49.3381 59.7983 49.2212 60.1293 49.1433C60.4604 49.046 60.7915 48.9973 61.1225 48.9973C61.5705 48.9973 61.8626 49.2115 61.9989 49.6399C62.1547 50.0684 62.2423 50.5358 62.2618 51.0421C63.0408 50.5552 63.7321 50.0392 64.3359 49.4939C64.9591 48.9486 65.6212 48.2475 66.3223 47.3906C66.4975 47.1764 66.6533 47.0498 66.7897 47.0109C66.9455 46.9719 67.0623 47.0011 67.1402 47.0985C67.2181 47.1764 67.2571 47.303 67.2571 47.4783C67.2571 47.634 67.1986 47.7996 67.0818 47.9749ZM59.7788 54.3431C59.8177 54.1873 59.8567 54.0412 59.8956 53.9049C59.9541 53.788 60.0028 53.6614 60.0417 53.5251C59.029 54.0899 58.104 54.6839 57.2666 55.3071C56.4292 55.9497 55.6989 56.6216 55.0757 57.3227C54.472 58.0238 53.9948 58.7541 53.6443 59.5136C53.2937 60.2731 53.099 61.0423 53.0601 61.8213C53.0406 62.2887 53.1087 62.6879 53.2645 63.019C53.4398 63.3501 53.7417 63.5156 54.1701 63.5156C54.6375 63.5156 55.1341 63.1748 55.6599 62.4932C56.2052 61.8311 56.731 61.0131 57.2374 60.0394C57.7632 59.0851 58.25 58.0822 58.698 57.0306C59.1459 55.9984 59.5062 55.1026 59.7788 54.3431ZM80.2856 46.8648C80.0129 47.2543 79.6624 47.7412 79.234 48.3254C78.8055 48.8902 78.3576 49.4647 77.8902 50.0489C77.4423 50.6137 76.9944 51.1395 76.5465 51.6263C76.118 52.0937 75.7577 52.4248 75.4656 52.6196C75.2709 52.7364 75.0469 52.8338 74.7937 52.9117C74.5406 52.9896 74.2777 53.0383 74.005 53.0577C73.7518 53.0772 73.5084 53.0577 73.2747 52.9993C73.041 52.9604 72.8365 52.8825 72.6613 52.7656C72.486 52.6293 72.3399 52.4345 72.2231 52.1814C72.1257 51.9672 72.0283 51.6848 71.931 51.3342C71.8531 50.9837 71.8239 50.5455 71.8433 50.0197C71.3759 50.7987 70.8599 51.4024 70.2951 51.8308C69.7303 52.2398 69.1948 52.5417 68.6884 52.7364C68.1042 52.9506 67.52 53.0772 66.9357 53.1162C66.6631 53.1162 66.371 53.0188 66.0594 52.824C65.7478 52.6488 65.4849 52.3664 65.2706 51.9769C65.0564 51.5679 64.9201 51.0518 64.8617 50.4287C64.8033 49.786 64.8811 49.0265 65.0954 48.1501C65.368 46.9622 65.7965 45.8813 66.3807 44.9076C66.9844 43.9339 67.6368 43.1062 68.3379 42.4246C69.039 41.7235 69.7303 41.1977 70.4119 40.8471C71.0936 40.4966 71.6583 40.3408 72.1062 40.3798C72.6321 40.4771 73.0605 40.6329 73.3916 40.8471C73.6642 41.0419 73.8395 41.334 73.9174 41.7235C74.0148 42.0935 73.859 42.5901 73.45 43.2133C73.7226 43.1549 73.9466 43.1159 74.1219 43.0965C74.3166 43.077 74.4627 43.0672 74.56 43.0672C74.6769 43.0672 74.7548 43.077 74.7937 43.0965C74.8132 43.1354 74.8229 43.223 74.8229 43.3594C74.8229 43.4762 74.7937 43.7002 74.7353 44.0312C74.6769 44.3623 74.5893 44.8102 74.4724 45.375C74.3556 45.9398 74.1998 46.6701 74.005 47.5659C73.9661 47.7412 73.9271 47.9067 73.8882 48.0625C73.8687 48.1988 73.8395 48.3449 73.8005 48.5007C73.7811 48.637 73.7518 48.8025 73.7129 48.9973C73.6739 49.192 73.6253 49.4355 73.5668 49.7276C73.5474 49.9028 73.5376 50.0976 73.5376 50.3118C73.5571 50.5066 73.596 50.6916 73.6545 50.8668C73.7129 51.0421 73.8005 51.1882 73.9174 51.305C74.0537 51.4024 74.2387 51.4511 74.4724 51.4511C74.6672 51.4511 74.9203 51.3342 75.2319 51.1005C75.5435 50.8474 75.8746 50.5358 76.2251 50.1658C76.5757 49.7763 76.9359 49.3576 77.306 48.9096C77.6955 48.4422 78.0557 47.9943 78.3868 47.5659C78.7179 47.1374 79.01 46.7577 79.2632 46.4266C79.5358 46.0956 79.7306 45.8521 79.8474 45.6963C80.0032 45.5211 80.159 45.4237 80.3148 45.4042C80.4706 45.3653 80.5874 45.4042 80.6653 45.5211C80.7432 45.6379 80.753 45.8132 80.6945 46.0469C80.6556 46.2806 80.5193 46.5532 80.2856 46.8648ZM71.7265 48.1501C71.8239 47.7606 71.9407 47.303 72.077 46.7772C72.2133 46.2514 72.3302 45.745 72.4276 45.2581C72.5249 44.7713 72.5931 44.372 72.6321 44.0605C72.6905 43.7294 72.6807 43.5736 72.6028 43.5931C72.5055 43.6125 72.3984 43.6418 72.2815 43.6807C72.1841 43.7196 72.0576 43.7489 71.9018 43.7683C71.746 43.7878 71.5902 43.817 71.4344 43.856C71.5902 43.5444 71.6778 43.2912 71.6973 43.0965C71.7362 42.8822 71.746 42.7167 71.7265 42.5999C71.707 42.4635 71.6681 42.3564 71.6096 42.2785C71.3954 42.1033 71.0157 42.2493 70.4704 42.7167C69.9446 43.1646 69.3311 44.002 68.63 45.2289C68.3379 45.7353 68.1042 46.2806 67.9289 46.8648C67.7537 47.4296 67.6271 47.9651 67.5492 48.4715C67.4907 48.9778 67.481 49.4257 67.52 49.8152C67.5589 50.1852 67.6368 50.4287 67.7537 50.5455C67.9679 50.7597 68.2113 50.8668 68.484 50.8668C68.7566 50.8474 69.0292 50.7695 69.3019 50.6331C69.594 50.4773 69.8764 50.2826 70.149 50.0489C70.4412 49.8152 70.6943 49.5718 70.9085 49.3186C71.1422 49.0654 71.3273 48.8317 71.4636 48.6175C71.6194 48.4033 71.707 48.2475 71.7265 48.1501Z" fill="#DB2E2E"/>
<rect x="8.25813" y="56.7678" width="56.853" height="56.853" rx="21.9785" transform="rotate(-60 8.25813 56.7678)" stroke="url(#paint0_linear_1037_37177)" stroke-width="1.45312"/>
<defs>
<linearGradient id="paint0_linear_1037_37177" x1="34.772" y1="64.6197" x2="36.4187" y2="115.34" gradientUnits="userSpaceOnUse">
<stop stop-color="#DB2E2E" stop-opacity="0"/>
<stop offset="1" stop-color="#DB2E2E"/>
</linearGradient>
</defs>
</svg>
