<svg width="614" height="352" viewBox="0 0 614 352" fill="none" xmlns="http://www.w3.org/2000/svg">
    <circle cx="38.8419" cy="221.1" r="0.4" transform="rotate(176.702 38.8419 221.1)" fill="white"/>
    <circle cx="81.5753" cy="156.134" r="0.4" transform="rotate(176.702 81.5753 156.134)" fill="white"/>
    <circle cx="293.744" cy="180.769" r="0.4" transform="rotate(176.702 293.744 180.769)" fill="white"/>
    <circle cx="505.912" cy="205.404" r="0.4" transform="rotate(176.702 505.912 205.404)" fill="white"/>
    <circle cx="484.492" cy="125.705" r="0.4" transform="rotate(176.702 484.492 125.705)" fill="white"/>
    <circle cx="590.735" cy="64.2908" r="0.4" transform="rotate(176.702 590.735 64.2908)" fill="white"/>
    <circle cx="421.583" cy="90.866" r="0.4" transform="rotate(176.702 421.583 90.866)" fill="white"/>
    <circle cx="587.38" cy="159.041" r="0.4" transform="rotate(176.702 587.38 159.041)" fill="white"/>
    <circle cx="336.499" cy="255.233" r="0.4" transform="rotate(176.702 336.499 255.233)" fill="white"/>
    <circle cx="85.6169" cy="351.425" r="0.4" transform="rotate(176.702 85.6169 351.425)" fill="white"/>
    <circle cx="176.528" cy="107.391" r="2" transform="rotate(176.702 176.528 107.391)" fill="white" fill-opacity="0.2"/>
    <circle cx="363.83" cy="145.479" r="2" transform="rotate(176.702 363.83 145.479)" fill="white" fill-opacity="0.3"/>
    <circle cx="2.91285" cy="56.4948" r="2" transform="rotate(176.702 2.91285 56.4948)" fill="white"/>
    <circle cx="224.273" cy="212.819" r="2" transform="rotate(176.702 224.273 212.819)" fill="white"/>
    <circle opacity="0.5" cx="448.362" cy="326.115" r="1.6" transform="rotate(176.702 448.362 326.115)" fill="white"/>
    <circle cx="514.001" cy="180.383" r="0.4" fill="white"/>
    <circle cx="303.601" cy="143.583" r="0.4" fill="white"/>
    <circle cx="320.401" cy="224.383" r="0.4" fill="white"/>
    <circle cx="210.801" cy="279.583" r="0.4" fill="white"/>
    <circle cx="381.201" cy="262.783" r="0.4" fill="white"/>
    <circle cx="219.601" cy="185.183" r="0.4" fill="white"/>
    <circle cx="475.601" cy="103.583" r="0.4" fill="white"/>
    <circle cx="294.801" cy="317.183" r="0.4" fill="white"/>
    <circle cx="407.601" cy="317.983" r="0.4" fill="white"/>
    <circle cx="442.001" cy="211.583" r="2" fill="white" fill-opacity="0.3"/>
    <circle cx="585.201" cy="152.383" r="2" fill="white"/>
    <circle opacity="0.5" cx="368.001" cy="26.383" r="1.6" fill="white"/>
    <circle opacity="0.5" cx="44.8011" cy="238.383" r="1.6" fill="white"/>
    <circle opacity="0.5" cx="154.401" cy="117.583" r="1.6" fill="white"/>
</svg>
