<svg width="20" height="20" viewBox="0 0 20 20" fill="none" xmlns="http://www.w3.org/2000/svg">
    <path d="M15.5396 5.14369C14.5283 4.68067 13.4606 4.35218 12.3639 4.16663C12.2138 4.43491 12.078 4.71094 11.9571 4.99356C10.7888 4.81752 9.60083 4.81752 8.4326 4.99356C8.3116 4.71097 8.17581 4.43494 8.02579 4.16663C6.92837 4.35375 5.85998 4.68301 4.84761 5.14611C2.83778 8.11968 2.29295 11.0194 2.56537 13.878C3.74237 14.7476 5.05977 15.4089 6.46031 15.8333C6.77567 15.4091 7.05472 14.9592 7.29451 14.4882C6.83907 14.3181 6.39949 14.1082 5.98086 13.861C6.09104 13.7811 6.19879 13.6988 6.30291 13.6189C7.52103 14.1917 8.85055 14.4887 10.1966 14.4887C11.5427 14.4887 12.8723 14.1917 14.0904 13.6189C14.1957 13.7048 14.3035 13.7871 14.4124 13.861C13.993 14.1086 13.5526 14.3189 13.0964 14.4894C13.3359 14.9602 13.6149 15.4098 13.9306 15.8333C15.3323 15.4106 16.6507 14.7496 17.8279 13.8792C18.1476 10.5642 17.2819 7.69108 15.5396 5.14369ZM7.63957 12.12C6.88044 12.12 6.25327 11.4311 6.25327 10.5835C6.25327 9.73602 6.85864 9.04106 7.63715 9.04106C8.41565 9.04106 9.03797 9.73602 9.02465 10.5835C9.01133 11.4311 8.41323 12.12 7.63957 12.12ZM12.7537 12.12C11.9934 12.12 11.3686 11.4311 11.3686 10.5835C11.3686 9.73602 11.974 9.04106 12.7537 9.04106C13.5334 9.04106 14.1509 9.73602 14.1376 10.5835C14.1243 11.4311 13.5274 12.12 12.7537 12.12Z" fill="#818186"/>
</svg>
