<svg width="20" height="20" viewBox="0 0 20 20" fill="none" xmlns="http://www.w3.org/2000/svg">
    <path d="M18.1673 6.69592C18.1673 6.69592 18.0045 5.54683 17.5032 5.04228C16.8684 4.37821 16.1588 4.37496 15.8333 4.3359C13.5026 4.16663 10.0032 4.16663 10.0032 4.16663H9.9967C9.9967 4.16663 6.49735 4.16663 4.16663 4.3359C3.84111 4.37496 3.13147 4.37821 2.4967 5.04228C1.9954 5.54683 1.8359 6.69592 1.8359 6.69592C1.8359 6.69592 1.66663 8.04683 1.66663 9.39449V10.6575C1.66663 12.0052 1.83264 13.3561 1.83264 13.3561C1.83264 13.3561 1.9954 14.5052 2.49345 15.0097C3.12821 15.6738 3.96155 15.651 4.33264 15.7226C5.66728 15.8496 9.99996 15.8886 9.99996 15.8886C9.99996 15.8886 13.5026 15.8821 15.8333 15.7161C16.1588 15.677 16.8684 15.6738 17.5032 15.0097C18.0045 14.5052 18.1673 13.3561 18.1673 13.3561C18.1673 13.3561 18.3333 12.0084 18.3333 10.6575V9.39449C18.3333 8.04683 18.1673 6.69592 18.1673 6.69592ZM8.27795 12.1907V7.50647L12.7799 9.85673L8.27795 12.1907Z" fill="#818186"/>
</svg>
